
        <svg xmlns="http://www.w3.org/2000/svg" xmlns:xlink="http://www.w3.org/1999/xlink" version="1.1" width="3174.2178155529105" 
        height="967.2361501375491" viewBox="0 0 3174.2178155529105 967.2361501375491">
			<rect fill="#e04c4c" width="3174.2178155529105" height="967.2361501375491"/>
			<g transform="scale(8.710890777645524) translate(10, 10)">
				<defs id="SvgjsDefs4470"></defs><g id="SvgjsG4471" featureKey="2ou6gm-0" transform="matrix(1.0404293788444177,0,0,1.0404293788444177,-5.202146894222088,-5.202146894222088)" fill="#ffffff"><path xmlns="http://www.w3.org/2000/svg" d="M83.627,13.758C81.257,8.594,76.054,5,70,5c-8.284,0-15,6.716-15,15v10.08c0,2.701-2.145,4.912-4.844,4.989  c-14.942,0.425-29.77,2.815-44.101,7.115L5,42.5v0c0,19.527,13.995,35.773,32.5,39.282V92.5H60v-5h-7.5v-5.719  c18.378-3.485,32.3-19.536,32.49-38.883c0.832,0.435,7.51,3.448,7.51,3.448V33.455l-7.5,3.75v-8.155l10-2v-8.742L83.627,13.758z   M47.5,87.5h-5v-5.092c0.825,0.051,1.655,0.085,2.493,0.085c0.001,0,0.006,0,0.007,0h0.014c0.836,0,1.663-0.034,2.486-0.085V87.5z   M77.5,37.205l-7.5-3.75v12.892c0,0,6.658-3.003,7.49-3.437c-0.221,17.725-14.701,32.08-32.497,32.083  c-6.346,0-12.269-1.834-17.278-4.993H45c6.893,0,12.5-5.607,12.5-12.5h-5c0,4.136-3.364,7.5-7.5,7.5H21.581  c-1.473-1.532-2.8-3.204-3.952-5H30v-5H15.003c-0.927-2.215-1.617-4.552-2.034-6.982c12.206-3.261,24.763-5.093,37.4-5.452  C57.171,42.372,62.5,36.888,62.5,30.08V20c0-4.136,3.365-7.5,7.5-7.5s7.5,3.364,7.5,7.5V37.205z M90,22.951l-5,1V20  c0-0.106-0.014-0.208-0.016-0.314L90,21.692V22.951z"></path><rect xmlns="http://www.w3.org/2000/svg" x="67.5" y="17.5" width="5" height="5"></rect></g><g id="SvgjsG4472" featureKey="sloganFeature-0" transform="matrix(0.8125699148779513,0,0,0.8125699148779513,118.92740757287423,41.28709511364953)" fill="#ffffff"><path d="M6.3 20.2 c-3.12 0 -4.98 -2.2 -4.98 -6.44 c0 -4.72 2.32 -7.96 5.98 -7.96 c2.62 0 3.9 1.68 3.9 3.58 c0 0.68 -0.16 0.92 -0.52 0.92 c-0.18 0 -0.28 -0.06 -0.34 -0.14 c0.02 -0.12 0.04 -0.28 0.04 -0.54 c0 -1.88 -1.04 -3.04 -3.08 -3.04 c-3.26 0 -5.18 2.96 -5.18 7.2 c0 3.76 1.5 5.64 4.2 5.64 c1.74 0 3.06 -0.76 3.86 -1.9 c0.28 0.06 0.38 0.24 0.38 0.44 c0 0.82 -1.76 2.24 -4.26 2.24 z M18.02 20.2 c-2.76 0 -4.9 -2.02 -4.9 -6.56 c0 -5.16 2.72 -7.84 5.96 -7.84 c2.78 0 4.92 1.98 4.92 6.5 c0 5.14 -2.72 7.9 -5.98 7.9 z M18 19.42 c2.88 0 5.2 -2.4 5.2 -7.16 c0 -4.08 -1.72 -5.68 -4.1 -5.68 c-2.88 0 -5.18 2.32 -5.18 7.08 c0 4.1 1.7 5.76 4.08 5.76 z M32.6 20 c-0.4 0 -0.62 -0.2 -0.7 -0.5 l-2.94 -12.94 l-0.04 0 l-1.8 13.36 c-0.1 0.06 -0.22 0.08 -0.34 0.08 c-0.32 0 -0.44 -0.22 -0.4 -0.5 l1.8 -13.28 c0.38 -0.18 0.56 -0.22 0.86 -0.22 c0.36 0 0.62 0.22 0.7 0.5 l2.94 12.94 l0.04 0 l4.88 -13.22 c0.36 -0.18 0.48 -0.22 0.78 -0.22 c0.38 0 0.72 0.22 0.72 0.5 l-0.12 13.42 c-0.12 0.06 -0.28 0.08 -0.4 0.08 c-0.24 0 -0.34 -0.2 -0.34 -0.5 l0.06 -12.94 l-0.04 0 l-4.86 13.24 c-0.34 0.16 -0.5 0.2 -0.8 0.2 z M46.64 14.7 c-1.08 0 -2.1 -0.14 -2.82 -0.36 l-0.4 5.58 c-0.04 0.04 -0.22 0.08 -0.34 0.08 c-0.3 0 -0.44 -0.14 -0.42 -0.44 l0.98 -13.22 c0.88 -0.26 2.26 -0.54 3.76 -0.54 c2.76 0 4.18 1.72 4.18 4.36 c0 2.68 -2 4.54 -4.94 4.54 z M46.76 13.940000000000001 c2.54 0 4.04 -1.54 4.04 -3.86 c0 -2.18 -1.08 -3.5 -3.4 -3.5 c-1.16 0 -2.3 0.16 -3.02 0.38 l-0.5 6.62 c0.72 0.22 1.76 0.36 2.88 0.36 z M58.300000000000004 20.2 c-3.28 0 -4.56 -1.88 -4.34 -4.94 l0.68 -9.16 c0.1 -0.06 0.22 -0.1 0.36 -0.1 c0.26 0 0.42 0.14 0.38 0.66 l-0.66 8.62 c-0.2 2.62 0.84 4.14 3.64 4.14 c2.72 0 3.76 -1.36 3.96 -3.94 l0.72 -9.38 c0.1 -0.06 0.26 -0.1 0.4 -0.1 c0.24 0 0.4 0.14 0.36 0.66 l-0.7 9.04 c-0.18 2.4 -1.34 4.5 -4.8 4.5 z M75.44 6 c0.04 0.1 0.06 0.24 0.06 0.32 c0 0.24 -0.18 0.44 -0.44 0.44 l-3.92 0 l0 0.04 l-1 13.12 c-0.02 0.04 -0.22 0.08 -0.34 0.08 c-0.28 0 -0.44 -0.14 -0.42 -0.44 l0.96 -12.8 l-4.16 0 c-0.02 -0.06 -0.04 -0.2 -0.04 -0.3 c0 -0.26 0.14 -0.46 0.44 -0.46 l8.86 0 z M85.44 6 c0.04 0.1 0.06 0.24 0.06 0.32 c0 0.24 -0.16 0.44 -0.36 0.44 l-6.4 0 l-0.44 5.74 l6.3 0 c0.04 0.08 0.06 0.24 0.06 0.3 c0 0.24 -0.08 0.46 -0.36 0.46 l-6.06 0 l-0.44 5.98 l7.12 0 c0.04 0.1 0.06 0.24 0.06 0.32 c0 0.3 -0.16 0.44 -0.36 0.44 l-7.2 0 c-0.28 0 -0.44 -0.16 -0.42 -0.46 l1 -13.54 l7.44 0 z M96.8 9.62 c0 2.3 -1.3 3.7 -3.48 4.14 l2.96 5.98 c-0.12 0.16 -0.28 0.26 -0.46 0.26 c-0.3 0 -0.4 -0.2 -0.48 -0.38 l-2.82 -5.76 c-0.26 0.02 -0.52 0.04 -0.78 0.04 c-0.82 0 -1.92 -0.1 -2.64 -0.24 l-0.46 6.26 c-0.04 0.04 -0.22 0.08 -0.34 0.08 c-0.3 0 -0.44 -0.14 -0.42 -0.44 l0.98 -13.22 c0.88 -0.26 2.34 -0.54 3.62 -0.54 c2.9 0 4.32 1.44 4.32 3.82 z M89.16 12.9 c0.72 0.14 1.86 0.24 2.68 0.24 c2.8 0 4.18 -1.24 4.18 -3.52 c0 -2 -1.06 -3.04 -3.54 -3.04 c-0.98 0 -2.16 0.16 -2.88 0.38 z M107.67999999999999 20.2 c-2.54 0 -4.08 -1.24 -4.08 -1.98 c0.02 -0.32 0.18 -0.52 0.44 -0.56 c0.34 0.8 1.48 1.76 3.56 1.76 c2.72 0 4.16 -1.24 4.18 -2.9 c0.06 -4.04 -7.12 -2.7 -7.04 -7.12 c0.04 -2.06 1.82 -3.6 4.38 -3.6 c2.52 0 3.76 1.48 3.74 3.08 c-0.04 0.68 -0.24 0.9 -0.56 0.9 c-0.16 0 -0.26 -0.04 -0.34 -0.12 l0 -0.02 c0.02 -0.12 0.04 -0.3 0.04 -0.5 c0.04 -1.46 -0.88 -2.56 -2.92 -2.56 c-2.16 0 -3.5 1.2 -3.54 2.72 c-0.06 3.84 7.12 2.4 7.04 7.26 c-0.04 2.14 -1.92 3.64 -4.9 3.64 z M123.94 6 c0.04 0.1 0.06 0.24 0.06 0.32 c0 0.24 -0.16 0.44 -0.36 0.44 l-6.4 0 l-0.44 5.74 l6.3 0 c0.04 0.08 0.06 0.24 0.06 0.3 c0 0.24 -0.08 0.46 -0.36 0.46 l-6.06 0 l-0.44 5.98 l7.12 0 c0.04 0.1 0.06 0.24 0.06 0.32 c0 0.3 -0.16 0.44 -0.36 0.44 l-7.2 0 c-0.28 0 -0.44 -0.16 -0.42 -0.46 l1 -13.54 l7.44 0 z M135.3 9.62 c0 2.3 -1.3 3.7 -3.48 4.14 l2.96 5.98 c-0.12 0.16 -0.28 0.26 -0.46 0.26 c-0.3 0 -0.4 -0.2 -0.48 -0.38 l-2.82 -5.76 c-0.26 0.02 -0.52 0.04 -0.78 0.04 c-0.82 0 -1.92 -0.1 -2.64 -0.24 l-0.46 6.26 c-0.04 0.04 -0.22 0.08 -0.34 0.08 c-0.3 0 -0.44 -0.14 -0.42 -0.44 l0.98 -13.22 c0.88 -0.26 2.34 -0.54 3.62 -0.54 c2.9 0 4.32 1.44 4.32 3.82 z M127.66 12.9 c0.72 0.14 1.86 0.24 2.68 0.24 c2.8 0 4.18 -1.24 4.18 -3.52 c0 -2 -1.06 -3.04 -3.54 -3.04 c-0.98 0 -2.16 0.16 -2.88 0.38 z M141.42 20 c-0.38 0 -0.62 -0.2 -0.7 -0.5 l-3.42 -13.32 c0.06 -0.08 0.22 -0.18 0.42 -0.18 c0.28 0 0.38 0.08 0.46 0.32 l3.36 13.12 l0.04 0 c2.88 -4.32 4.84 -8.78 5.64 -13.36 c0.1 -0.06 0.2 -0.08 0.34 -0.08 c0.3 0 0.38 0.24 0.34 0.48 c-0.76 4.66 -2.76 9.02 -5.64 13.3 c-0.36 0.18 -0.56 0.22 -0.84 0.22 z M150.34 20 c-0.3 0 -0.46 -0.14 -0.44 -0.44 l1 -13.46 c0.1 -0.06 0.24 -0.1 0.38 -0.1 c0.26 0 0.4 0.14 0.36 0.66 l-0.98 13.26 c-0.04 0.04 -0.2 0.08 -0.32 0.08 z M159.40000000000003 20.2 c-3.12 0 -4.98 -2.2 -4.98 -6.44 c0 -4.72 2.32 -7.96 5.98 -7.96 c2.62 0 3.9 1.68 3.9 3.58 c0 0.68 -0.16 0.92 -0.52 0.92 c-0.18 0 -0.28 -0.06 -0.34 -0.14 c0.02 -0.12 0.04 -0.28 0.04 -0.54 c0 -1.88 -1.04 -3.04 -3.08 -3.04 c-3.26 0 -5.18 2.96 -5.18 7.2 c0 3.76 1.5 5.64 4.2 5.64 c1.74 0 3.06 -0.76 3.86 -1.9 c0.28 0.06 0.38 0.24 0.38 0.44 c0 0.82 -1.76 2.24 -4.26 2.24 z M175.00000000000003 6 c0.04 0.1 0.06 0.24 0.06 0.32 c0 0.24 -0.16 0.44 -0.36 0.44 l-6.4 0 l-0.44 5.74 l6.3 0 c0.04 0.08 0.06 0.24 0.06 0.3 c0 0.24 -0.08 0.46 -0.36 0.46 l-6.06 0 l-0.44 5.98 l7.12 0 c0.04 0.1 0.06 0.24 0.06 0.32 c0 0.3 -0.16 0.44 -0.36 0.44 l-7.2 0 c-0.28 0 -0.44 -0.16 -0.42 -0.46 l1 -13.54 l7.44 0 z M180.52000000000004 20.2 c-2.54 0 -4.08 -1.24 -4.08 -1.98 c0.02 -0.32 0.18 -0.52 0.44 -0.56 c0.34 0.8 1.48 1.76 3.56 1.76 c2.72 0 4.16 -1.24 4.18 -2.9 c0.06 -4.04 -7.12 -2.7 -7.04 -7.12 c0.04 -2.06 1.82 -3.6 4.38 -3.6 c2.52 0 3.76 1.48 3.74 3.08 c-0.04 0.68 -0.24 0.9 -0.56 0.9 c-0.16 0 -0.26 -0.04 -0.34 -0.12 l0 -0.02 c0.02 -0.12 0.04 -0.3 0.04 -0.5 c0.04 -1.46 -0.88 -2.56 -2.92 -2.56 c-2.16 0 -3.5 1.2 -3.54 2.72 c-0.06 3.84 7.12 2.4 7.04 7.26 c-0.04 2.14 -1.92 3.64 -4.9 3.64 z"></path></g><g id="SvgjsG4473" featureKey="nameLeftFeature-0" transform="matrix(1.9391409657615744,0,0,1.9391409657615744,112.52155610214679,-1.2589792382208227)" fill="#ffffff"><path d="M12.508 14.5424 c0.16949 0 0.23746 0.067631 0.23746 0.23712 l0 3.0678 l-0.016949 0 c0 0.067797 -0.050847 0.16949 -0.13559 0.25424 c-1.2544 1.2542 -2.8814 2.0168 -4.8983 2.0168 c-3.8136 0 -6.9322 -3.0168 -6.9322 -6.8812 c0 -3.8475 3.1186 -6.9153 6.9322 -6.9153 c1.9322 0 3.661 0.74576 4.9322 2.0169 c0.15254 0.15254 0.16949 0.27119 0.067797 0.35593 l-0.71186 0.59322 c-0.11864 0.10169 -0.22034 0.10169 -0.33898 -0.016949 c-0.71186 -0.74559 -2.1186 -1.6608 -3.8475 -1.6608 c-3.678 0 -5.7119 2.9831 -5.7119 5.6271 c0 2.678 2.0339 5.5932 5.7119 5.5932 c1.5932 0 2.8475 -0.74576 3.61 -1.4407 l0 -1.5763 l-3.5763 0 c-0.15254 0 -0.22034 -0.067797 -0.22034 -0.20339 l0 -0.83051 c0 -0.16949 0.067797 -0.23729 0.22034 -0.23729 l4.678 0 z M21.52547288135593 20.11864 c3.8305 0 6.9492 -3.0337 6.9492 -6.8981 c0 -3.8475 -3.1186 -6.8983 -6.9492 -6.8983 c-3.8475 0 -6.9661 3.0508 -6.9661 6.8983 c0 3.8644 3.1186 6.8981 6.9661 6.8981 z M21.52547288135593 18.8307 c-3.0847 0 -5.6441 -2.5085 -5.6441 -5.6102 s2.5593 -5.6102 5.6441 -5.6102 c3.0846 0 5.61 2.5085 5.61 5.6102 s-2.5254 5.6102 -5.61 5.6102 z M37.47462542372881 20.11864 c3.8305 0 6.9492 -3.0337 6.9492 -6.8981 c0 -3.8475 -3.1186 -6.8983 -6.9492 -6.8983 c-3.8475 0 -6.9661 3.0508 -6.9661 6.8983 c0 3.8644 3.1186 6.8981 6.9661 6.8981 z M37.47462542372881 18.8307 c-3.0847 0 -5.6441 -2.5085 -5.6441 -5.6102 s2.5593 -5.6102 5.6441 -5.6102 c3.0846 0 5.61 2.5085 5.61 5.6102 s-2.5254 5.6102 -5.61 5.6102 z M46.288137966101694 17.729 l0.47441 -0.55932 c0.15238 -0.15254 0.30492 -0.13559 0.44051 -0.033898 c0.32203 0.27119 1.6441 1.7119 3.5254 1.7119 c2.2373 0 3.2203 -1.2203 3.2203 -2.4237 c0 -1.7288 -1.9663 -2.1864 -3.7459 -2.8305 c-2.0169 -0.76271 -3.7458 -1.678 -3.7458 -3.7119 c0 -1.6949 1.2373 -3.5593 4.2712 -3.5593 c2.0847 0 3.5932 1.2542 4 1.6102 c0.13559 0.11864 0.18644 0.27119 0.084912 0.40678 l-0.44068 0.57627 c-0.10169 0.13559 -0.23729 0.16949 -0.38983 0.067797 c-0.33898 -0.25424 -1.5592 -1.3898 -3.2371 -1.3898 c-1.8985 0 -2.9663 1 -2.9663 2.288 c0 1.4915 1.5086 2.0169 3.4917 2.7288 c1.8136 0.67797 4 1.5932 4 3.8305 c0 1.9661 -1.8303 3.6608 -4.5253 3.6608 c-2.4746 0 -4 -1.61 -4.3898 -1.9998 c-0.11864 -0.11864 -0.22034 -0.22034 -0.067797 -0.37271 z M65.99979830508475 7.728999999999999 l-7.3556 0.00049656 l0 4.9659 l4.5424 0 c0.15254 0 0.23729 0.067797 0.23729 0.23729 l0 0.81339 c0 0.15254 -0.084746 0.22034 -0.23729 0.22034 l-4.5424 0 l0 4.7458 l7.3559 0 c0.15254 0 0.23712 0.084746 0.23712 0.23712 l0 0.81356 c0 0.16949 -0.067797 0.23712 -0.23729 0.23712 l-8.4746 0 c-0.15254 0 -0.22034 -0.08458 -0.22034 -0.22017 l0 -13.119 c0 -0.15254 0.084746 -0.22034 0.22034 -0.22034 l8.4746 0 c0.15254 0 0.23712 0.084746 0.23712 0.22034 l0 0.84746 c0 0.13559 -0.067797 0.22034 -0.23729 0.22034 z"></path></g><g id="SvgjsG4474" featureKey="nameRightFeature-0" transform="matrix(1.9391943148201956,0,0,1.9391943148201956,248.52188946066838,-1.2600303564303665)" fill="#ffffff"><path d="M11.169 6.441000000000001 c0.16949 0 0.32203 0.13592 0.32203 0.32237 l0 1.6949 c0 0.16933 -0.15254 0.32186 -0.32203 0.32186 l-3.8305 0 l0 10.881 c0 0.20339 -0.13559 0.33881 -0.32203 0.33881 l-1.2542 0 c-0.54237 0 -0.84746 -0.37288 -0.84746 -0.86441 l0 -10.356 l-3.8136 0 c-0.16949 0 -0.33898 -0.13559 -0.33898 -0.32203 l0 -1.678 c0 -0.18644 0.15254 -0.33898 0.33898 -0.33898 l10.068 0 z M22.118637288135595 8.78 l-6.1697 -0.00033103 l0 3.4068 l3.322 0 c0.18644 0 0.33898 0.15254 0.33898 0.33915 l0 1.6778 c0 0.20339 -0.13559 0.3222 -0.33898 0.3222 l-3.322 0 l0 3.1356 l6.1695 0 c0.18644 0 0.33881 0.15238 0.33881 0.33881 l0 1.6613 c0 0.18644 -0.15238 0.33881 -0.33881 0.33881 l-8.2542 0 c-0.18644 0 -0.33898 -0.15238 -0.33898 -0.33881 l0 -12.898 c0 -0.16949 0.13559 -0.32203 0.3222 -0.32203 l8.2712 0 c0.18644 0 0.33881 0.15254 0.33881 0.32203 l0 1.6949 c0 0.18644 -0.15238 0.32203 -0.33881 0.32203 z M35.8474406779661 17.4578 c0.16949 0.13559 0.16933 0.30508 0.016784 0.45763 c-1.2542 1.3729 -3.0339 2.2032 -5.0678 2.2032 c-3.7288 0 -6.8475 -2.9998 -6.8475 -6.8642 c0 -3.8475 3.1186 -6.9322 6.8475 -6.9322 c2.0508 0 3.8475 0.84746 5.1186 2.2373 c0.15254 0.15254 0.13559 0.32203 -0.016949 0.45763 l-1.4068 1.1356 c-0.16966 0.13559 -0.32203 0.11864 -0.45763 -0.033898 c-0.72881 -0.76271 -1.8644 -1.4575 -3.2203 -1.4575 c-2.4915 0 -4.4405 2.1524 -4.4405 4.5931 c0 2.4746 1.949 4.5254 4.4405 4.5254 c1.339 0 2.4576 -0.66102 3.1695 -1.4068 c0.15254 -0.15254 0.30508 -0.16949 0.47458 -0.050847 z M49.10161016949152 6.441000000000001 c0.18644 0 0.33881 0.15254 0.33881 0.32203 l0 12.898 c0 0.20339 -0.13559 0.33881 -0.30525 0.33881 l-1.288 0 c-0.54237 0 -0.84763 -0.37288 -0.84763 -0.86441 l0 -4.5422 l-6.5085 0 l0 5.0678 c0 0.16949 -0.13559 0.33881 -0.32203 0.33881 l-1.7627 0 c-0.18644 0 -0.33898 -0.15238 -0.33898 -0.33881 l0 -12.898 c0 -0.16949 0.13559 -0.32203 0.3222 -0.32203 l1.7627 0 c0.18644 0 0.33898 0.15254 0.33898 0.32203 l0 5.3898 l6.5085 0 l0 -5.3898 c0 -0.16949 0.13559 -0.32203 0.33898 -0.32203 l1.7629 0 z"></path></g>
			</g>
		</svg>
	